<?xml version="1.0" encoding="utf-8" ?><svg xmlns="http://www.w3.org/2000/svg" xmlns:xlink="http://www.w3.org/1999/xlink" width="195" height="195" viewBox="0 0 195 195"><path fill="#244455" transform="scale(0.19043 0.19043)" d="M418.044 147.226C438.935 148.541 641.988 214.545 666.226 225.879C662.535 232.103 653.195 235.912 646.354 239.566C645.647 266.162 644.845 298.094 646.863 324.789C648.848 337.938 660.144 348.617 656.693 362.351C653.341 375.679 633.294 378.207 623.389 370.182C606.392 356.41 625.18 341.536 625.911 327.712C627.33 300.768 626.198 272.597 625.699 245.426C599.744 253.258 573.634 260.891 547.991 269.66C508.538 283.573 466.073 295.36 425.781 307.213C347.366 290.848 252.959 245.21 169.287 227.28C246.528 198.713 338.012 174.524 418.044 147.226Z"/><path fill="#30ACC1" transform="scale(0.19043 0.19043)" d="M809.761 651.042C823.683 651.513 864.371 694.954 876.365 706.972C855.008 728.226 827.634 751.436 805.178 772.77L618.151 952.57C589.65 927.474 557.925 895.263 529.175 868.639C507.676 850.195 481.58 823.675 460.43 803.656C478.85 784.948 504.102 763.407 523.861 744.869C553.045 771.87 589.221 810.257 618.419 834.439C684.199 775.142 746.376 706.741 809.761 651.042Z"/><path fill="#244455" transform="scale(0.19043 0.19043)" d="M366.683 654.771C421.397 647.831 504.05 659.57 558.863 668.029C581.107 671.466 643.568 698.58 648.452 721.493L645.468 725.496C642.191 726.166 638.122 727.245 635.048 724.888C566.322 672.281 492.782 671.687 409.685 670.16C223.728 666.746 152.204 738.348 151.184 921.581C169.004 920.227 195.077 920.986 213.502 920.972L397.319 921.51C422.901 921.458 498.407 916.507 517.294 927.761L517.987 931.599C514.951 934.645 512.871 937.082 508.138 937.328C384.033 943.792 259.249 936.767 135.116 939.166C134.684 865.292 137.556 786.816 186.593 726.397C232.116 670.301 299.276 661.72 366.683 654.771Z"/><path fill="#244455" transform="scale(0.19043 0.19043)" d="M549.83 283.894C552.032 284.148 550.669 283.776 553.432 286.128L551.918 326.293C532.008 343.968 492.075 364.661 465.88 371.644C403.094 388.376 363.868 367.169 311.676 337.618C290.361 322.96 295.066 308.014 295.877 284.351C360.959 300.136 406.107 335.765 475.163 309.886C499.137 300.9 525.544 292.465 549.83 283.894Z"/><path fill="#244455" transform="scale(0.19043 0.19043)" d="M297.084 346.01C300.031 347.9 312.105 355.996 312.204 358.589C312.685 371.111 298.06 395.316 298.131 407.655C298.367 447.739 307.093 499.488 317.834 537.554C326.358 564.857 346.263 585.823 371.048 598.322C415.682 620.839 494.71 601.721 512.202 551.236C527.053 508.37 536.086 444.887 532.004 399.064C531.193 389.937 522.998 371.12 519.194 361.861C526.379 356.788 533.64 350.541 542.027 348.999L546.266 353.318C547.873 369.796 551.409 385.953 552.239 402.643C553.998 437.239 546.657 471.605 541.942 505.753C538.218 529.039 531.334 558.501 516.539 577.539C463.466 645.846 346.376 639.542 307.244 558.949C294.656 533.028 298.574 519.676 293.36 494.966C279.739 430.365 275.255 408.588 297.084 346.01Z"/></svg>